<svg width="36" height="36" viewBox="0 0 36 36" fill="none" xmlns="http://www.w3.org/2000/svg">
<rect width="36" height="36" fill="#D3D3D3"/>
<g id="&#236;&#153;&#128;&#236;&#157;&#180;&#236;&#150;&#180;&#237;&#148;&#132;&#235;&#160;&#136;&#236;&#158;&#132; v1_250223">
<path d="M-4482 -6135C-4482 -6136.1 -4481.1 -6137 -4480 -6137H2924C2925.1 -6137 2926 -6136.1 2926 -6135V3072C2926 3073.1 2925.1 3074 2924 3074H-4480C-4481.1 3074 -4482 3073.1 -4482 3072V-6135Z" fill="#E5E5E5"/>
<path d="M-4480 -6136H2924V-6138H-4480V-6136ZM2925 -6135V3072H2927V-6135H2925ZM2924 3073H-4480V3075H2924V3073ZM-4481 3072V-6135H-4483V3072H-4481ZM-4480 3073C-4480.55 3073 -4481 3072.55 -4481 3072H-4483C-4483 3073.66 -4481.66 3075 -4480 3075V3073ZM2925 3072C2925 3072.55 2924.55 3073 2924 3073V3075C2925.66 3075 2927 3073.66 2927 3072H2925ZM2924 -6136C2924.55 -6136 2925 -6135.55 2925 -6135H2927C2927 -6136.66 2925.66 -6138 2924 -6138V-6136ZM-4480 -6138C-4481.66 -6138 -4483 -6136.66 -4483 -6135H-4481C-4481 -6135.55 -4480.55 -6136 -4480 -6136V-6138Z" fill="black" fill-opacity="0.1"/>
<g id="&#235;&#182;&#132;&#236;&#132;&#157; &#234;&#178;&#176;&#234;&#179;&#188;">
<rect width="505" height="943" transform="translate(-420 -594)" fill="#2B91FF"/>
<g id="Text Field2">
<g id="Frame 2085663693">
<g id="Text Field/Filled">
<path d="M-384.5 3.8147e-06C-384.5 -6.35127 -379.351 -11.5 -373 -11.5H38C44.3513 -11.5 49.5 -6.35127 49.5 0V130C49.5 136.351 44.3513 141.5 38 141.5H-373C-379.351 141.5 -384.5 136.351 -384.5 130V3.8147e-06Z" fill="#D5E9FF"/>
<path d="M-384.5 3.8147e-06C-384.5 -6.35127 -379.351 -11.5 -373 -11.5H38C44.3513 -11.5 49.5 -6.35127 49.5 0V130C49.5 136.351 44.3513 141.5 38 141.5H-373C-379.351 141.5 -384.5 136.351 -384.5 130V3.8147e-06Z" stroke="#AAD3FF"/>
<g id="Copy Button">
<g id="Group 2085663778">
<path id="Rectangle 34625580" d="M0 8C0 3.58172 3.58172 0 8 0H28C32.4183 0 36 3.58172 36 8V28C36 32.4183 32.4183 36 28 36H8C3.58172 36 0 32.4183 0 28V8Z" fill="white"/>
<rect id="Rectangle 34625581" x="8" y="12" width="16" height="16" stroke="#1A5799" stroke-width="2" stroke-linejoin="round"/>
<path id="Vector 25881" d="M11 8H28V26" stroke="#1A5799" stroke-width="2" stroke-linejoin="round"/>
</g>
</g>
</g>
</g>
</g>
</g>
</g>
</svg>
